<svg width="16" height="16" viewBox="0 0 16 16" fill="none" xmlns="http://www.w3.org/2000/svg">
<path d="M12.2483 4.4144L4.4144 12.2483C4.21015 12.4525 4.23709 12.7928 4.47381 12.9615C5.5419 13.7227 6.76121 14.125 8 14.125C11.3642 14.125 14.125 11.3635 14.125 7.99999C14.125 6.76124 13.7227 5.54193 12.9616 4.47383C12.7937 4.23821 12.4535 4.20927 12.2483 4.4144V4.4144ZM8 13.1875C7.13368 13.1875 6.27518 12.9512 5.48856 12.5L12.5 5.48855C12.9512 6.27518 13.1875 7.13368 13.1875 7.99999C13.1875 10.8604 10.8604 13.1875 8 13.1875Z" fill="#B4B4B4"/>
<path d="M8 0C3.59503 0 0 3.59531 0 8C0 12.405 3.59531 16 8 16C12.4049 16 16 12.4047 16 8C16 3.59509 12.4047 0 8 0ZM8 15.0625C4.10572 15.0625 0.9375 11.8943 0.9375 8C0.9375 4.10572 4.10572 0.9375 8 0.9375C11.8943 0.9375 15.0625 4.10572 15.0625 8C15.0625 11.8943 11.8943 15.0625 8 15.0625Z" fill="#B4B4B4"/>
<path d="M11.5262 3.03844C10.4581 2.27731 9.23875 1.875 8 1.875C4.63631 1.875 1.875 4.63603 1.875 8C1.875 9.23878 2.27731 10.4581 3.03844 11.5262C3.20644 11.7619 3.54647 11.7908 3.75163 11.5856L11.5856 3.75163C11.7902 3.54706 11.7624 3.20681 11.5262 3.03844V3.03844ZM3.49997 10.5114C3.04875 9.72478 2.8125 8.86631 2.8125 8C2.8125 5.13959 5.13959 2.8125 8 2.8125C8.86631 2.8125 9.72478 3.04875 10.5114 3.5L3.49997 10.5114Z" fill="#B4B4B4"/>
</svg>
