<svg width="16" height="16" viewBox="0 0 16 16" fill="none" xmlns="http://www.w3.org/2000/svg">
<g clip-path="url(#clip0)">
<path d="M16.0957 3.8804C16.087 3.79149 16.0524 3.70225 15.9915 3.62802C15.968 3.59932 16.2082 3.84138 12.407 0.0401464C12.3164 -0.0504678 12.1934 -0.0980386 12.0733 -0.0980072C11.7874 -0.0980072 1.69979 -0.0980072 1.41486 -0.0980072C0.634708 -0.0980072 0 0.536701 0 1.31686V14.5851C0 15.3653 0.634708 16 1.41486 16H14.6831C15.4633 16 16.098 15.3653 16.098 14.5851C16.098 3.13461 16.0993 3.91656 16.0957 3.8804V3.8804ZM10.8473 0.845236V3.9265C10.8473 4.18655 10.6358 4.39812 10.3757 4.39812H9.77831V0.845236H10.8473ZM8.83507 0.845236V4.39812H4.46471C4.20466 4.39812 3.99309 4.18655 3.99309 3.9265V0.845236H8.83507ZM10.8473 9.99469H3.99309V9.3973C3.99309 9.13725 4.20466 8.92568 4.46471 8.92568H10.3757C10.6358 8.92568 10.8473 9.13725 10.8473 9.3973V9.99469ZM3.99309 15.0568V10.9379H10.8473V15.0568H3.99309ZM15.1548 14.5851C15.1548 14.8452 14.9432 15.0568 14.6832 15.0568H11.7906C11.7906 14.4419 11.7906 10.0982 11.7906 9.3973C11.7906 8.61715 11.1559 7.98244 10.3757 7.98244H4.46471C3.68456 7.98244 3.04985 8.61715 3.04985 9.3973V15.0568H1.4149C1.15484 15.0568 0.943274 14.8452 0.943274 14.5851V1.31686C0.943274 1.0568 1.15484 0.845236 1.4149 0.845236H3.04985V3.9265C3.04985 4.70665 3.68456 5.34136 4.46471 5.34136H10.3757C11.1559 5.34136 11.7906 4.70665 11.7906 3.9265V0.845236H11.8782L15.1548 4.12187V14.5851Z" fill="#B4B4B4"/>
</g>
<defs>
<clipPath id="clip0">
<rect width="16" height="16" fill="white"/>
</clipPath>
</defs>
</svg>
